<?xml version="1.0" standalone="no"?>
<!DOCTYPE svg PUBLIC "-//W3C//DTD SVG 1.1//EN" "http://www.w3.org/Graphics/SVG/1.1/DTD/svg11.dtd" >
<svg xmlns="http://www.w3.org/2000/svg" xmlns:xlink="http://www.w3.org/1999/xlink" version="1.1">
<metadata></metadata>
<defs>
<font id="galileobold" horiz-adv-x="913" >
<font-face units-per-em="2048" ascent="1638" descent="-410" />
<missing-glyph horiz-adv-x="378" />
<glyph unicode="&#x3b;&#x3b;For&#x20;Education&#x20;Used&#x20;Only&#x3b;&#x3b;" horiz-adv-x="1290" d="M123 512q0 106 41 201.5t111.5 167t165.5 112.5t204 41q106 0 201.5 -41t167 -112.5t112.5 -167t41 -201.5q0 -109 -41 -204t-112.5 -165.5t-166.5 -111.5t-202 -41q-109 0 -204 41t-165.5 111.5t-111.5 165.5t-41 204zM258 512q0 -80 29.5 -150.5t82 -123t123 -82 t150.5 -29.5t150.5 29.5t123 82t83 123t30.5 150.5t-30.5 150.5t-83 123t-123 83t-150.5 30.5t-150.5 -30.5t-123 -83t-82 -123t-29.5 -150.5zM383 391v227q0 59 21.5 98.5t58.5 62t86 31.5t104 9q84 0 130 -18.5t61 -32.5l-39 -88q-59 14 -89 17t-63 3q-53 0 -81.5 -4 t-42 -15t-15.5 -27.5t-2 -41.5v-217q0 -25 2 -41t15.5 -27.5t42 -15.5t81.5 -4q33 0 62.5 2t89.5 19l39 -88q-14 -14 -60.5 -33t-130.5 -19q-55 0 -104 9.5t-86 32t-58.5 62.5t-21.5 99z" />
<glyph unicode="&#x3b;&#x3b;Registered&#x3b;&#x3b;" horiz-adv-x="1290" d="M123 512q0 106 41 201.5t111.5 167t165.5 112.5t204 41q106 0 201.5 -41t167 -112.5t112.5 -167t41 -201.5q0 -109 -41 -204t-112.5 -165.5t-166.5 -111.5t-202 -41q-109 0 -204 41t-165.5 111.5t-111.5 165.5t-41 204zM258 512q0 -80 29.5 -150.5t82 -123t123 -82 t150.5 -29.5t150.5 29.5t123 82t83 123t30.5 150.5t-30.5 150.5t-83 123t-123 83t-150.5 30.5t-150.5 -30.5t-123 -83t-82 -123t-29.5 -150.5zM436 231v580h248q51 0 91 -6t66.5 -25.5t41 -54.5t14.5 -92v-31q0 -143 -96 -188l86 -183h-131l-78 177h-113v-177h-129zM565 526 h119q61 0 72.5 23.5t11.5 52.5v31q0 37 -17.5 48t-66.5 11h-119v-166z" />
<glyph unicode="&#x3b;&#x3b;Multiply&#x3b;&#x3b;" horiz-adv-x="923" d="M123 614l131 129l211 -211l211 211l125 -125l-209 -210l213 -211l-131 -134l-213 213l-209 -208l-125 127l209 206z" />
<glyph unicode="&#x3b;&#x3b;Divide&#x3b;&#x3b;" horiz-adv-x="1021" d="M123 334v166h776v-166h-776zM401 145q0 45 32 77t77 32t76.5 -32t31.5 -77t-31.5 -76.5t-76.5 -31.5t-77 31.5t-32 76.5zM403 688q0 49 30 78t77 29t77.5 -29t30.5 -78q0 -47 -30.5 -77.5t-77.5 -30.5t-77 30.5t-30 77.5z" />
<glyph unicode="&#x2018;&#x2018;" horiz-adv-x="684" d="M123 819v254l186 109v-363h-186zM375 819v254l186 109v-363h-186z" />
<glyph unicode="&#x2019;&#x2019;" horiz-adv-x="684" d="M123 819v363h186v-254zM375 819v363h186v-254z" />
<glyph unicode="&#x3b;&#x3b;Trademark&#x3b;&#x3b;" horiz-adv-x="1427" d="M123 899v125h457v-125h-158v-496h-139v496h-160zM631 403v621h203l133 -485l131 485h207v-621h-140v422l-118 -422h-158l-119 420v-420h-139z" />
<glyph horiz-adv-x="0" />
<glyph unicode="&#xd;" horiz-adv-x="579" />
<glyph unicode=" "  horiz-adv-x="378" />
<glyph unicode="&#x09;" horiz-adv-x="378" />
<glyph unicode="&#xa0;" horiz-adv-x="378" />
<glyph unicode="!" horiz-adv-x="391" d="M82 98q0 -45 31.5 -76.5t76.5 -31.5t77 31.5t32 76.5t-31.5 77t-77.5 32q-45 0 -76.5 -32t-31.5 -77zM92 1024h197q-6 -369 -6 -748h-185q0 379 -6 748z" />
<glyph unicode="&#x22;" horiz-adv-x="567" d="M82 1116h201l-19 -323h-164zM313 1116h201l-18 -323h-164z" />
<glyph unicode="#" horiz-adv-x="1099" d="M100 303v166h156l27 135h-131v166h159l49 254h195l-47 -254h145q10 59 22.5 127t24.5 127h197l-49 -254h117v-166h-148l-29 -135h127v-166h-153l-60 -303h-192l55 303h-145l-60 -303h-192l57 303h-125zM449 469h145l29 135h-144q-8 -33 -16 -64.5t-14 -70.5z" />
<glyph unicode="$" horiz-adv-x="987" d="M119 100l102 133q47 -27 92 -47t97 -28v319q-51 18 -100.5 40t-87.5 52.5t-60.5 71.5t-22.5 96q0 143 75 210t196 81v121h184v-121q98 -10 177 -27.5t112 -29.5l-62 -154q-51 10 -109.5 20.5t-117.5 14.5v-262q55 -20 107.5 -44t93.5 -54.5t66.5 -69.5t25.5 -90 q0 -102 -23.5 -167t-63.5 -101.5t-93.5 -53t-112.5 -20.5v-119h-184v119q-66 8 -139.5 33.5t-151.5 76.5zM324 737q0 -25 23.5 -44t62.5 -36v191q-39 -12 -62.5 -38t-23.5 -73zM594 162q51 10 79.5 46t28.5 124q0 29 -30.5 49t-77.5 37v-256z" />
<glyph unicode="%" horiz-adv-x="1290" d="M29 666v219q0 39 20.5 65.5t51 43t68.5 23.5t75 7t74.5 -7t68.5 -23.5t51.5 -43t20.5 -65.5v-219q0 -43 -19.5 -74t-50.5 -50.5t-68.5 -28.5t-76.5 -9t-77 9t-68.5 28.5t-50 50.5t-19.5 74zM164 688q0 -29 11 -40t69 -11q57 0 68.5 11t11.5 40v152q0 20 -11.5 35.5 t-68.5 15.5t-68.5 -15.5t-11.5 -35.5v-152zM221 0l610 1024h197l-606 -1024h-201zM793 215v219q0 39 20.5 65.5t51 43t68.5 23.5t75 7t74.5 -7t68.5 -23.5t51.5 -43t20.5 -65.5v-219q0 -43 -19.5 -73.5t-50.5 -50t-68.5 -29t-76.5 -9.5t-77 9.5t-69 29t-50 50t-19 73.5z M928 238q0 -29 11 -40.5t69 -11.5q57 0 68 11.5t11 40.5v151q0 20 -11 35.5t-68 15.5t-68.5 -15t-11.5 -36v-151z" />
<glyph unicode="&#x26;" horiz-adv-x="1042" d="M55 295q0 98 51.5 155.5t122.5 96.5q-41 90 -41 192q0 74 7.5 129.5t34 92t77.5 55t139 18.5q86 0 136.5 -18.5t77 -55t33.5 -92t7 -129.5q0 -98 -58 -160.5t-134 -103.5q41 -43 70.5 -78t74.5 -82q20 68 21 191h184q0 -119 -16.5 -201t-44.5 -133l164 -172h-244l-45 45 q-63 -29 -117.5 -42t-108.5 -13q-78 0 -148.5 5t-123.5 33.5t-86 90t-33 176.5zM240 295q0 -47 15 -73.5t44 -42t69 -19.5t89 -4q18 0 42.5 3t41.5 13q-53 57 -104.5 108.5t-104.5 110.5q-41 -23 -66.5 -45t-25.5 -51zM373 741q0 -66 30 -116q49 23 81 49t32 67q0 59 -9 89 t-61 30q-53 0 -63 -30t-10 -89z" />
<glyph unicode="'" horiz-adv-x="393" d="M98 1116h201l-18 -323h-164z" />
<glyph unicode="(" horiz-adv-x="489" d="M92 524q0 57 6 132t18.5 155t32 158t48.5 143h184q-25 -68 -43.5 -148.5t-32.5 -161.5t-21.5 -156t-7.5 -130q0 -57 7.5 -133t21.5 -158t32.5 -163.5t43.5 -149.5h-184q-29 68 -48.5 148.5t-32 163.5t-18.5 161t-6 139z" />
<glyph unicode=")" horiz-adv-x="489" d="M92 -88q25 68 43.5 149.5t32.5 163.5t21.5 158t7.5 133q0 55 -7.5 130t-21.5 156t-32.5 161.5t-43.5 148.5h184q29 -66 48.5 -143.5t32 -157.5t18.5 -154.5t6 -132.5q0 -61 -6 -139t-18.5 -161t-33 -163.5t-47.5 -148.5h-184z" />
<glyph unicode="*" horiz-adv-x="835" d="M68 791l51 208l180 -71l-23 188h213l-22 -188l180 71l51 -208l-174 -29l115 -125l-172 -129l-84 151l-84 -151l-172 129l115 125z" />
<glyph unicode="+" horiz-adv-x="1017" d="M123 330v166h295v307h184v-307h293v-166h-293v-305h-184v305h-295z" />
<glyph unicode="," horiz-adv-x="430" d="M123 119h184v-287l-184 -108v395z" />
<glyph unicode="-" horiz-adv-x="884" d="M123 330v166h639v-166h-639z" />
<glyph unicode="." horiz-adv-x="462" d="M123 98q0 45 31.5 77t76.5 32t77 -32t32 -77t-32 -76.5t-77 -31.5t-76.5 31.5t-31.5 76.5z" />
<glyph unicode="/" horiz-adv-x="688" d="M57 0l383 1024h191l-379 -1024h-195z" />
<glyph unicode="0" horiz-adv-x="952" d="M113 264v492q0 86 27.5 140t76.5 85t115.5 42t144.5 11q76 0 142.5 -11t115.5 -42t77 -85t28 -140v-492q0 -96 -27 -150.5t-74 -82t-114.5 -34.5t-147.5 -7q-82 0 -149.5 7t-114.5 34.5t-73.5 82t-26.5 150.5zM297 248q0 -59 48 -75.5t132 -16.5q82 0 130 16t48 76v506 q0 41 -38 68.5t-140 27.5t-141 -28.5t-39 -67.5v-506z" />
<glyph unicode="1" horiz-adv-x="552" d="M16 895l277 129h147v-1024h-184v819l-195 -80z" />
<glyph unicode="2" horiz-adv-x="870" d="M92 0v143q25 35 70 83t97 101.5t106.5 109t99.5 106.5t73.5 96t30.5 76v30q0 20 -4 41t-19.5 37.5t-44 26.5t-77.5 10t-78 -10t-44 -26.5t-19 -37t-4 -41.5v-81h-185v73q0 86 22.5 142.5t64.5 91.5t103.5 49t139.5 14q76 0 137.5 -14t104.5 -49t65.5 -91.5t22.5 -142.5 v-22q0 -53 -26 -107.5t-75 -119t-121.5 -143.5t-166.5 -179h393v-166h-666z" />
<glyph unicode="3" horiz-adv-x="854" d="M82 281v73h184v-88q0 -61 33 -85.5t111 -24.5q80 0 113.5 24.5t33.5 85.5v37q0 20 -5 42t-20.5 39t-44 27.5t-77.5 10.5h-123v166h123q80 0 113.5 32.5t33.5 96.5v28q0 20 -5 41t-20.5 37.5t-44 26.5t-77.5 10t-77 -10t-43.5 -26.5t-19.5 -37t-4 -41.5v-79h-184v73 q0 86 22.5 142.5t64.5 90.5t102.5 48t138.5 14t139 -14t104 -48t65.5 -90.5t22.5 -142.5v-22q0 -82 -13 -135.5t-64 -87.5q43 -35 60 -80t17 -111v-22q0 -96 -20.5 -153.5t-61.5 -88.5t-103 -40t-146 -9t-145.5 9t-102.5 40t-60.5 88t-19.5 154z" />
<glyph unicode="4" horiz-adv-x="866" d="M31 276v166l448 582h162v-582h143v-166h-143v-276h-184v276h-426zM236 442h221v287z" />
<glyph unicode="5" horiz-adv-x="864" d="M92 332h184q0 -90 34 -125t112 -35q80 0 112.5 24.5t32.5 86.5v98q0 20 -4 40.5t-19.5 38t-44 28t-77.5 10.5q-84 0 -115 -16.5t-31 -49.5v-10h-184v602h625v-174h-441v-213q53 20 87 23.5t59 3.5q78 0 139.5 -12.5t103.5 -44.5t64.5 -86t22.5 -140v-98 q0 -96 -20.5 -153.5t-61.5 -88.5t-102.5 -41t-145.5 -10t-145.5 12t-102.5 48t-61.5 103.5t-20.5 178.5z" />
<glyph unicode="6" horiz-adv-x="862" d="M102 283v454q0 86 22.5 142.5t64.5 91.5t103.5 49t139.5 14q47 0 113.5 -5t183.5 -36l-37 -166q-100 25 -161.5 29t-98.5 4q-49 0 -77.5 -10t-44 -27.5t-19.5 -38t-4 -41.5v-108q47 16 75.5 19t69.5 3q76 0 137.5 -14t103.5 -48t64.5 -90t22.5 -143v-79 q0 -96 -19.5 -153.5t-60.5 -88.5t-102.5 -41t-145.5 -10t-145.5 10t-102.5 41t-61.5 88t-20.5 154zM287 266q0 -61 33.5 -85.5t111.5 -24.5t110.5 24.5t32.5 85.5v109q0 20 -4 40.5t-18 38t-43 28t-78 10.5q-90 0 -117.5 -32t-27.5 -69v-125z" />
<glyph unicode="7" horiz-adv-x="768" d="M51 850v174h666v-174l-295 -850h-199l293 850h-465z" />
<glyph unicode="8" horiz-adv-x="823" d="M82 283v22q0 66 17.5 115t64.5 84q-45 35 -63.5 87t-18.5 124v22q0 86 22.5 142.5t64.5 91.5t102.5 49t138.5 14t139 -14t104 -49t65.5 -91.5t22.5 -142.5v-22q0 -78 -15 -129t-62 -86q41 -35 59 -82t18 -113v-22q0 -96 -20.5 -153.5t-61.5 -88.5t-103 -41t-146 -10 t-145.5 10t-102.5 41t-60.5 88t-19.5 154zM266 266q0 -61 33 -85.5t111 -24.5q80 0 113.5 24.5t33.5 85.5v47q0 20 -5 42t-20.5 38.5t-44 26.5t-77.5 10h-13q-45 -2 -70.5 -12t-39 -26.5t-17.5 -37t-4 -41.5v-47zM266 709q0 -63 33 -88t111 -25q80 0 113.5 24.5t33.5 88.5 v36q0 20 -5 41t-20.5 37.5t-44 26.5t-77.5 10t-77 -10t-43.5 -26.5t-19.5 -37t-4 -41.5v-36z" />
<glyph unicode="9" horiz-adv-x="841" d="M82 662v79q0 94 19.5 152.5t60.5 89.5t102.5 41t145.5 10t145 -10t102 -41t61.5 -89t20.5 -153v-454q0 -86 -22.5 -142.5t-64.5 -91.5t-103.5 -49t-138.5 -14q-47 0 -114 5t-183 36l37 157q100 -25 161.5 -28.5t98.5 -3.5q49 0 77.5 10t44 27.5t19.5 38t4 40.5v117 q-47 -16 -75.5 -19t-69.5 -3q-78 0 -138.5 14t-102.5 48t-64.5 90t-22.5 143zM266 649q0 -20 4 -40.5t18.5 -38t43 -28t78.5 -10.5q90 0 117.5 32t27.5 69v117q0 61 -34 85.5t-111 24.5q-78 0 -111 -24.5t-33 -85.5v-101z" />
<glyph unicode=":" horiz-adv-x="462" d="M123 98q0 45 31.5 77t76.5 32t77 -32t32 -77t-32 -76.5t-77 -31.5t-76.5 31.5t-31.5 76.5zM123 647q0 45 31.5 77t76.5 32t77 -32t32 -77t-32 -76.5t-77 -31.5t-76.5 31.5t-31.5 76.5z" />
<glyph unicode=";" horiz-adv-x="462" d="M123 647q0 45 31.5 77t76.5 32t77 -32t32 -77t-32 -76.5t-77 -31.5t-76.5 31.5t-31.5 76.5zM139 119h185v-287l-185 -108v395z" />
<glyph unicode="&#x3c;" horiz-adv-x="978" d="M123 317v211l731 318v-203l-551 -221l551 -219v-201z" />
<glyph unicode="=" horiz-adv-x="1021" d="M123 180v166h776v-166h-776zM123 473v166h776v-166h-776z" />
<glyph unicode="&#x3e;" horiz-adv-x="976" d="M123 2v201l551 219l-551 221v203l731 -318v-211z" />
<glyph unicode="?" horiz-adv-x="815" d="M123 932q14 12 38.5 29.5t59.5 34t80 27.5t100 11q133 0 212 -61.5t79 -186.5q0 -68 -34.5 -119t-76.5 -98t-77 -94t-35 -108v-99h-184v99q0 74 34.5 128t76.5 100t77 91t35 100q0 31 -26.5 52.5t-80.5 21.5q-53 0 -109 -23.5t-110 -52.5zM268 98q0 -45 32 -76.5 t77 -31.5t76.5 31.5t31.5 76.5t-31.5 77t-76.5 32t-77 -32t-32 -77z" />
<glyph unicode="@" horiz-adv-x="1269" d="M123 297v426q0 80 36 139.5t94 97t132 56t147 18.5h203q74 0 146.5 -18.5t131 -56t95.5 -97t37 -139.5v-381q0 -43 -19.5 -71.5t-47 -46t-58.5 -24.5t-55 -7q-47 0 -91.5 12t-62.5 49q-23 -23 -53.5 -35t-59 -18t-50 -7t-27.5 -1q-61 0 -111.5 9t-85.5 33.5t-54.5 68.5 t-19.5 116v166q0 129 77 180t194 51q4 0 17 -1t31.5 -4t41 -10t43.5 -20v35h139v-461q0 -27 19.5 -30.5t35.5 -3.5q18 0 29.5 4t11.5 30v367q0 29 -15.5 57.5t-47 52t-79.5 39t-112 15.5h-203q-63 0 -111 -15.5t-80 -39t-47 -52t-15 -57.5v-426q0 -43 20 -73.5t55 -49 t81 -28t97 -9.5h203q68 0 134.5 4t119.5 25l62 -115q-63 -47 -139 -54t-177 -7h-203q-80 0 -153.5 14t-129.5 50t-91 94.5t-35 148.5zM487 440q0 -66 29 -89t105 -23q78 0 105.5 23.5t27.5 88.5v131q0 20 -3 40t-15.5 36.5t-39 26.5t-75.5 10q-47 0 -74 -10t-40 -26.5 t-16.5 -36t-3.5 -40.5v-131z" />
<glyph unicode="A" horiz-adv-x="1003" d="M41 0l324 1024h274l324 -1024h-195l-92 297h-350l-90 -297h-195zM377 461h250l-125 407z" />
<glyph unicode="B" horiz-adv-x="980" d="M123 0v1034h409q82 0 146.5 -10t108.5 -42t68 -90t24 -153v-16q0 -66 -20.5 -114t-76.5 -83q55 -37 76 -88t21 -116v-27q0 -88 -26 -145.5t-71 -90t-109.5 -46t-140.5 -13.5h-409zM307 166h225q51 0 83 13.5t49.5 32.5t23.5 41.5t6 41.5v33q0 61 -41 87.5t-121 26.5h-225 v-276zM307 606h240q47 0 75.5 10.5t45 28t21.5 37.5t5 41v18q0 119 -162 119h-225v-254z" />
<glyph unicode="C" horiz-adv-x="950" d="M102 309v402q0 109 29 172t85 97t137 44t186 10q131 0 223 -24.5t117 -42.5l-56 -150q-41 16 -114.5 29.5t-169.5 13.5q-94 0 -145.5 -13t-75 -34.5t-27.5 -48.5t-4 -53v-398q0 -27 4 -54.5t27.5 -51t74.5 -37.5t146 -14q96 0 169.5 13t114.5 30l56 -142 q-25 -18 -117 -42.5t-223 -24.5q-104 0 -185.5 9t-137.5 42t-85 96.5t-29 171.5z" />
<glyph unicode="D" horiz-adv-x="1003" d="M123 0v1024h379q74 0 144.5 -11.5t124.5 -42t87 -85t33 -140.5v-473q0 -94 -31 -148t-83 -82t-123.5 -35t-151.5 -7h-379zM307 166h195q41 0 78.5 4t65.5 14.5t44.5 28.5t16.5 47v492q0 41 -50.5 69.5t-154.5 28.5h-195v-684z" />
<glyph unicode="E" horiz-adv-x="907" d="M123 0v1024h682v-174h-498v-248h457v-166h-457v-270h498v-166h-682z" />
<glyph unicode="F" horiz-adv-x="886" d="M123 0v1024h682v-174h-498v-242h457v-166h-457v-442h-184z" />
<glyph unicode="G" horiz-adv-x="1001" d="M102 309v402q0 109 29 172t85 97t137 44t186 10q131 0 223 -24.5t117 -42.5l-56 -150q-41 16 -114.5 29.5t-169.5 13.5q-94 0 -145.5 -13t-75 -34.5t-27.5 -48.5t-4 -53v-394q0 -29 4 -57.5t27.5 -52t74.5 -37.5t146 -14q49 0 83.5 3t63.5 9v194h-133v175h317v-480 q-23 -16 -110.5 -41.5t-220.5 -25.5q-104 0 -185.5 10t-137.5 43t-85 96.5t-29 169.5z" />
<glyph unicode="H" horiz-adv-x="1007" d="M123 0v1024h184v-418h393v418h185v-1024h-185v432h-393v-432h-184z" />
<glyph unicode="I" horiz-adv-x="430" d="M123 0v1024h184v-1024h-184z" />
<glyph unicode="J" horiz-adv-x="724" d="M45 0v166h244q20 0 43.5 1t42 6t31 13.5t12.5 22.5v815h184v-801q0 -76 -25.5 -120t-67.5 -67.5t-94.5 -29.5t-107.5 -6h-262z" />
<glyph unicode="K" horiz-adv-x="1071" d="M123 0v1024h184v-420l447 420h264l-385 -371l407 -653h-223l-328 530l-182 -176v-354h-184z" />
<glyph unicode="L" horiz-adv-x="821" d="M123 0v1024h184v-858h463v-166h-647z" />
<glyph unicode="M" horiz-adv-x="1241" d="M123 0v1024h321l177 -858l176 858h321v-1024h-184v850l-182 -850h-263l-182 850v-850h-184z" />
<glyph unicode="N" horiz-adv-x="1071" d="M123 0v1024h307l334 -858v858h184v-1024h-311l-330 850v-850h-184z" />
<glyph unicode="O" horiz-adv-x="1013" d="M113 264v492q0 86 32.5 140t88 85t127 42t149.5 11q74 0 144.5 -11t126 -42t88 -85t32.5 -140v-492q0 -96 -30.5 -150.5t-84 -82t-125 -34.5t-151.5 -7q-82 0 -153.5 7t-126 34.5t-86 82t-31.5 150.5zM297 250q0 -31 17.5 -49.5t47 -28.5t67.5 -13t81 -3q41 0 79 3 t66.5 13t45 28.5t16.5 49.5v512q0 41 -52.5 69.5t-154.5 28.5q-106 0 -159.5 -28.5t-53.5 -69.5v-512z" />
<glyph unicode="P" horiz-adv-x="901" d="M123 0v1024h362q82 0 146.5 -10t108.5 -42t66.5 -89.5t22.5 -151.5v-80q0 -88 -25.5 -145t-70.5 -90t-108.5 -45.5t-139.5 -12.5h-178v-358h-184zM307 524h178q49 0 81 10.5t49.5 27t23.5 36.5t6 41v94q0 61 -41 89t-119 28h-178v-326z" />
<glyph unicode="Q" horiz-adv-x="1013" d="M113 264v492q0 86 32.5 140t88 85t127 42t149.5 11q74 0 144.5 -11t126 -42t88 -85t32.5 -140v-492q0 -98 -32.5 -153.5t-88.5 -81.5l70 -125h-199l-49 88q-23 -2 -46.5 -2h-45.5q-82 0 -153.5 7t-126 34.5t-86 82t-31.5 150.5zM297 250q0 -31 17.5 -49.5t47 -28.5 t67.5 -13t81 -3l-66 116h199l45 -82q29 23 29 60v512q0 41 -52.5 69.5t-154.5 28.5q-106 0 -159.5 -28.5t-53.5 -69.5v-512z" />
<glyph unicode="R" horiz-adv-x="985" d="M123 0v1024h405q82 0 146.5 -10t108.5 -42t67.5 -89.5t23.5 -151.5v-80q0 -113 -40.5 -175t-116.5 -91l190 -385h-207l-176 358h-217v-358h-184zM307 524h221q51 0 83 10.5t49.5 27t23.5 36.5t6 41v98q0 61 -42 87t-120 26h-221v-326z" />
<glyph unicode="S" horiz-adv-x="972" d="M102 102l103 134q59 -35 117.5 -57.5t130.5 -22.5q51 0 94 3t73.5 19.5t48 52t17.5 103.5q0 35 -42 57.5t-104.5 43t-135 43t-135 56t-104.5 83t-42 122.5q0 84 26.5 141.5t74.5 91.5t112.5 48t142.5 14q61 0 123 -7t114 -16.5t91 -19.5t59 -18l-61 -154 q-74 16 -164 28.5t-162 12.5q-74 0 -123 -26.5t-49 -94.5q0 -33 42 -56.5t104.5 -47t135.5 -48t135 -59t104 -82t42 -112.5q0 -129 -36.5 -198.5t-96 -102.5t-135.5 -38t-151 -5q-72 0 -163 24.5t-186 87.5z" />
<glyph unicode="T" horiz-adv-x="864" d="M51 850v174h762v-174h-291v-850h-184v850h-287z" />
<glyph unicode="U" horiz-adv-x="1013" d="M113 264v760h184v-772q0 -31 17.5 -49.5t47 -28.5t67.5 -14t81 -4q41 0 79 4t66.5 14t45 28.5t16.5 49.5v772h184v-760q0 -96 -30.5 -150.5t-84 -82t-125 -34.5t-151.5 -7q-82 0 -153.5 7t-126 34.5t-86 82t-31.5 150.5z" />
<glyph unicode="V" horiz-adv-x="1003" d="M41 1024h195l266 -868l266 868h195l-324 -1024h-274z" />
<glyph unicode="W" horiz-adv-x="1351" d="M82 1024h197l129 -868l149 604h238l149 -604l129 868h197l-152 -1024h-319l-123 561l-123 -561h-320z" />
<glyph unicode="X" horiz-adv-x="1146" d="M61 0l394 512l-394 512h236q66 -88 138.5 -180t137.5 -180q66 88 138.5 180t138.5 180h235l-393 -512l393 -512h-237l-275 358l-274 -358h-238z" />
<glyph unicode="Y" horiz-adv-x="1120" d="M51 1024h223l287 -416l285 416h223l-416 -606v-418h-184v418z" />
<glyph unicode="Z" horiz-adv-x="976" d="M102 0v147l519 703h-519v174h772v-147l-522 -711h522v-166h-772z" />
<glyph unicode="[" horiz-adv-x="534" d="M123 -88v1200h289v-166h-105v-868h105v-166h-289z" />
<glyph unicode="\" horiz-adv-x="688" d="M57 1024h191l383 -1024h-195z" />
<glyph unicode="]" horiz-adv-x="534" d="M123 78h104v868h-104v166h289v-1200h-289v166z" />
<glyph unicode="^" horiz-adv-x="860" d="M123 469l192 555h232l192 -555h-196l-113 391l-108 -391h-199z" />
<glyph unicode="_" horiz-adv-x="761" d="M0 -100h762v-166h-762v166z" />
<glyph unicode="`" horiz-adv-x="598" d="M125 1116h221l129 -323h-170z" />
<glyph unicode="a" horiz-adv-x="854" d="M82 270q0 92 38 141.5t95 72t125 26.5t129 4h88v27q0 20 -7 40.5t-25.5 37t-50.5 26.5t-81 10q-57 0 -127.5 -11t-128.5 -23l-49 157q70 23 138.5 37t166.5 14q74 0 137.5 -12t110.5 -44t73.5 -87t26.5 -139v-547h-163v96q-16 -33 -41 -53t-52.5 -32.5t-54.5 -16.5 t-47 -4q-57 0 -111.5 9t-96.5 39t-67.5 85t-25.5 147zM266 270q0 -66 30 -90t87 -24q39 0 87 14t87 59v121h-74q-33 0 -70.5 -1t-70.5 -9t-54.5 -23.5t-21.5 -46.5z" />
<glyph unicode="b" d="M123 0v1116h184v-346q45 39 94.5 49t90.5 10q68 0 126 -13t101 -46t67.5 -89t24.5 -142v-265q0 -92 -24.5 -148t-65.5 -86t-94.5 -40t-112.5 -10q-23 0 -55.5 3t-65.5 14t-61.5 31.5t-42.5 57.5v-96h-166zM309 279q0 -43 44 -77t116 -34q78 0 118 24.5t40 83.5v267 q0 20 -6.5 40.5t-23.5 36t-48 25.5t-80 10q-51 0 -82 -10t-48 -25.5t-23.5 -36t-6.5 -40.5v-264z" />
<glyph unicode="c" horiz-adv-x="798" d="M102 272v275q0 84 27 138t74 87t111.5 45t138.5 12q55 0 103 -7t85 -18t61.5 -22.5t34.5 -17.5l-41 -139q-84 23 -136 26.5t-107 3.5q-49 0 -81 -10t-51.5 -27.5t-26.5 -38t-7 -40.5v-267q0 -20 7 -40.5t26.5 -38t51 -27.5t81.5 -10q55 0 107 4t136 26l41 -131 q-10 -6 -34.5 -17t-61.5 -22.5t-85 -18.5t-103 -7q-74 0 -138.5 12t-111.5 45t-74 87t-27 138z" />
<glyph unicode="d" d="M102 274v265q0 86 25 142t68 89t101 46t126 13q41 0 90 -10t94 -49v346h185v-1116h-166v96q-14 -37 -43 -57.5t-62 -31.5t-65.5 -14t-55.5 -3q-59 0 -112.5 10t-94 40t-65.5 86t-25 148zM287 276q0 -59 40 -83.5t117 -24.5q72 0 116 34t44 77v264q0 20 -6 40.5t-23.5 36 t-48 25.5t-82.5 10q-49 0 -79.5 -10t-48 -25.5t-23.5 -36t-6 -40.5v-267z" />
<glyph unicode="e" horiz-adv-x="839" d="M102 272v265q0 92 22.5 148t65.5 89t106.5 44t143.5 11q82 0 143.5 -11t102.5 -44t61.5 -89t20.5 -148v-224h-481v-32q0 -20 6 -43t23.5 -41.5t48 -29.5t79.5 -11q78 0 151 10t132 24l37 -139q-31 -14 -113 -37.5t-207 -23.5q-74 0 -137 12t-108 45t-71 87t-26 138z M287 477h297v66q0 59 -34 85.5t-110 26.5q-80 0 -116.5 -26.5t-36.5 -85.5v-66z" />
<glyph unicode="f" horiz-adv-x="565" d="M57 655v164h105q4 162 64.5 229.5t199.5 67.5q41 0 84 -8t96 -29l-33 -151q-43 6 -69.5 8t-42 4t-23.5 2h-12q-45 0 -61.5 -35t-18.5 -88h180v-164h-180v-655h-184v655h-105z" />
<glyph unicode="g" d="M102 274v265q0 86 25 142t68 89t101 46t126 13q20 0 49 -4t57.5 -15t54 -32.5t42.5 -56.5v98h166v-901q0 -86 -23 -141.5t-64.5 -87t-103 -45t-137.5 -13.5q-129 0 -214 26t-114 40l41 141q59 -14 136 -27.5t151 -13.5q49 0 76.5 10.5t43 28t19.5 38t4 40.5v182 q-12 -39 -36.5 -60.5t-55.5 -31.5t-61.5 -12t-53.5 -2q-59 0 -112.5 10t-94 40t-65.5 86t-25 148zM287 264q0 -59 40 -83.5t117 -24.5q72 0 116 34.5t44 83.5v269q0 20 -6 40.5t-23.5 36t-48 25.5t-82.5 10q-49 0 -79.5 -10t-48 -25.5t-23.5 -36t-6 -40.5v-279z" />
<glyph unicode="h" d="M123 0v1116h184v-393q39 66 94.5 86t108.5 20q129 0 210 -85t81 -244v-500h-185v496q0 68 -31.5 113.5t-103.5 45.5q-37 0 -68.5 -20.5t-54.5 -44.5q-27 -29 -51 -64v-526h-184z" />
<glyph unicode="i" horiz-adv-x="432" d="M109 1012q0 45 31.5 76.5t76.5 31.5t77 -31.5t32 -76.5t-32 -77t-77 -32t-76.5 32t-31.5 77zM125 0v819h184v-819h-184z" />
<glyph unicode="j" horiz-adv-x="428" d="M-215 -344l22 162q45 -8 102.5 -10.5t92.5 -2.5q74 0 97.5 37t23.5 133v844h184v-895q0 -82 -23.5 -138t-64.5 -90t-97 -49.5t-120 -15.5q-63 0 -124.5 6.5t-92.5 18.5zM106 1012q0 45 32 76.5t77 31.5t77 -31.5t32 -76.5t-32 -77t-77 -32t-77 32t-32 77z" />
<glyph unicode="k" horiz-adv-x="860" d="M123 0v1116h184v-586l277 289h241l-352 -366l358 -453h-239l-250 313l-35 -39v-274h-184z" />
<glyph unicode="l" horiz-adv-x="430" d="M123 0v1116h184v-1116h-184z" />
<glyph unicode="m" horiz-adv-x="1226" d="M123 0v819h184v-98q12 37 37 58.5t51.5 32.5t50 14t35.5 3q23 0 48.5 -4t50 -15t44 -32.5t31.5 -56.5q35 55 85.5 81.5t121.5 26.5q88 0 138.5 -21.5t76 -63.5t31.5 -103t6 -141v-500h-184v489q0 70 -13.5 118t-66.5 48q-37 0 -80 -21.5t-57 -43.5q8 -23 9 -66t1 -73 v-451h-184v489q0 70 -19.5 118t-75.5 48q-37 0 -62.5 -14t-41.5 -30.5t-24 -32.5l-9 -15v-563h-184z" />
<glyph unicode="n" d="M123 0v819h184v-98q39 66 94.5 87t108.5 21q129 0 210 -85t81 -244v-500h-185v496q0 68 -31.5 113.5t-103.5 45.5q-37 0 -68.5 -20.5t-54.5 -44.5q-27 -29 -51 -64v-526h-184z" />
<glyph unicode="o" horiz-adv-x="886" d="M102 276v263q0 82 26 138t71 90t107.5 48t137.5 14q74 0 136.5 -14t107.5 -48t70.5 -90t25.5 -138v-263q0 -92 -23.5 -148t-66.5 -87t-106.5 -41t-143.5 -10q-82 0 -145 10t-107.5 41t-67 87t-22.5 148zM287 264q0 -72 39.5 -90t117.5 -18q74 0 115 18.5t41 89.5v279 q0 51 -29.5 81.5t-126.5 30.5q-98 0 -127.5 -29.5t-29.5 -82.5v-279z" />
<glyph unicode="p" d="M123 -369v1188h166v-98q27 41 58.5 62.5t63 31.5t60.5 12t49 2q57 0 110.5 -13t93.5 -46t63.5 -89t23.5 -142v-265q0 -92 -24.5 -148t-65.5 -86t-94.5 -40t-112.5 -10q-23 0 -53.5 2t-61 12t-55.5 31.5t-37 60.5v-465h-184zM309 274q0 -49 44 -83.5t116 -34.5 q78 0 118 24.5t40 83.5v279q0 20 -6.5 40.5t-23.5 36t-48 25.5t-80 10q-51 0 -82 -10t-48 -25.5t-23.5 -36t-6.5 -40.5v-269z" />
<glyph unicode="q" d="M102 274v265q0 86 24 142t63.5 89t93 46t110.5 13q20 0 49 -2t61 -12t63.5 -31.5t58.5 -62.5v98h166v-1188h-185v465q-12 -39 -36.5 -60.5t-55.5 -31.5t-61.5 -12t-53.5 -2q-59 0 -112.5 10t-94 40t-65.5 86t-25 148zM287 264q0 -59 40 -83.5t117 -24.5q72 0 116 34.5 t44 83.5v269q0 20 -6 40.5t-23.5 36t-48 25.5t-82.5 10q-49 0 -79.5 -10t-48 -25.5t-23.5 -36t-6 -40.5v-279z" />
<glyph unicode="r" horiz-adv-x="542" d="M123 0v819h184v-100q41 47 94.5 78.5t130.5 31.5v-174q-59 0 -101 -25.5t-71 -54.5q-33 -37 -53 -79v-496h-184z" />
<glyph unicode="s" horiz-adv-x="788" d="M82 82l82 141q51 -29 117.5 -48t126.5 -19q20 0 40.5 3t37 15t26.5 34.5t10 61.5q0 29 -31.5 46.5t-78.5 31.5t-102.5 30.5t-102.5 42t-79 65.5t-32 102q0 123 80 182t213 59q51 0 99.5 -5t89 -12t72.5 -15.5t50 -14.5l-49 -153q-63 14 -136 20t-126 6q-108 0 -108 -52 q0 -28 31.5 -45t78.5 -33.5t102.5 -36t102.5 -47t79 -68.5t32 -103q0 -100 -34 -156.5t-82 -84t-99.5 -33.5t-85.5 -6q-29 0 -69 4t-83 15t-88 28.5t-84 44.5z" />
<glyph unicode="t" horiz-adv-x="595" d="M53 655v164h127v238h185v-238h167v-164h-167v-411q0 -29 1 -44.5t7 -22.5t17 -8t34 -1h104v-168h-120q-61 0 -104.5 4t-71 25.5t-40 69.5t-12.5 139v417h-127z" />
<glyph unicode="u" horiz-adv-x="905" d="M113 322v497h184v-504q0 -68 25.5 -113.5t97.5 -45.5q37 0 68.5 11t56.5 26q29 16 53 36v590h184v-819h-164v96q-31 -53 -88 -79.5t-110 -26.5q-147 0 -227 73.5t-80 258.5z" />
<glyph unicode="v" horiz-adv-x="872" d="M31 819h194l211 -663l211 663h195l-283 -819h-246z" />
<glyph unicode="w" horiz-adv-x="1081" d="M102 819h185l57 -661l111 364h170l110 -366q8 70 15.5 156.5t14.5 178t14 177.5t14 151h186l-96 -819h-273l-69 266l-70 -266h-272z" />
<glyph unicode="x" horiz-adv-x="1001" d="M57 0l326 410l-324 409h232l211 -264q51 66 106.5 133.5t102.5 130.5h233l-328 -409l328 -410h-233l-209 264l-209 -264h-236z" />
<glyph unicode="y" horiz-adv-x="899" d="M41 819h195l215 -635l213 635h194l-446 -1188h-197l137 363q-74 199 -156.5 413t-154.5 412z" />
<glyph unicode="z" horiz-adv-x="792" d="M82 0v143l387 512h-387v164h629v-143l-389 -520h389v-156h-629z" />
<glyph unicode="{" horiz-adv-x="495" d="M12 438v166q41 0 62.5 9.5t32 23.5t12.5 33.5t2 40.5v264q0 53 23.5 94t84.5 43l154 -6v-156l-78 -4v-229q0 -68 -15.5 -115t-53.5 -80q39 -35 54 -82t15 -112v-250l78 -4v-156l-154 -6q-61 2 -84.5 43t-23.5 94v285q0 18 -2 37.5t-12.5 34t-32 23.5t-62.5 9z" />
<glyph unicode="|" horiz-adv-x="460" d="M172 -88v1200h184v-1200h-184z" />
<glyph unicode="}" horiz-adv-x="577" d="M106 74l78 4v250q0 66 15.5 112.5t54.5 81.5q-39 33 -54.5 80t-15.5 115v229l-78 4v156l154 6q61 -2 85 -43t24 -94v-264q0 -20 2 -40t12 -34t31.5 -23.5t62.5 -9.5v-166q-41 0 -62.5 -9t-31.5 -23.5t-12 -34t-2 -37.5v-285q0 -53 -23.5 -94t-85.5 -43l-154 6v156z" />
<glyph unicode="~" horiz-adv-x="1017" d="M86 522q66 53 121 85t119 32q45 0 86 -13.5t80.5 -28.5t80.5 -27.5t86 -12.5q23 0 52.5 19.5t70.5 52.5l109 -125q-66 -55 -118 -84t-114 -29q-43 0 -85 13.5t-81.5 29t-81.5 28.5t-85 13q-23 0 -62 -19.5t-74 -60.5z" />
<glyph unicode="&#xad;" horiz-adv-x="884" d="M123 330v166h639v-166h-639z" />
<glyph unicode="&#xbc;" horiz-adv-x="1325" d="M102 936l162 88h146v-659h-146v477q-29 -10 -61.5 -24.5t-55.5 -22.5zM322 0l485 1024h174l-485 -1024h-174zM727 158v129l250 372h160v-372h86v-129h-86v-158h-146v158h-264zM870 287h121v190z" />
<glyph unicode="&#xbd;" horiz-adv-x="1378" d="M102 936l162 88h146v-659h-146v477q-29 -10 -61.5 -24.5t-55.5 -22.5zM322 0l485 1024h174l-485 -1024h-174zM838 399v64q0 113 59 154.5t160 41.5q104 0 161.5 -42t57.5 -154v-17q0 -45 -19.5 -87t-50 -78.5t-67.5 -70.5t-74 -65h211v-145h-436v133q49 53 98 97t91 83 t69.5 72t31.5 61v29q0 16 -16 27.5t-57 11.5t-57.5 -11t-16.5 -28v-76h-145z" />
<glyph unicode="&#xbe;" horiz-adv-x="1423" d="M102 549v41h146v-33q0 -10 13 -22.5t54 -12.5q47 0 60.5 13.5t13.5 21.5q0 35 -9 57.5t-65 22.5h-34v119h34q27 0 42.5 4t22.5 14t8 26.5t1 43.5q0 8 -13.5 21.5t-60.5 13.5q-41 0 -54 -12.5t-13 -22.5v-33h-146v41q0 100 61.5 136t151.5 36q47 0 87 -8t70 -27.5 t46.5 -53.5t16.5 -83v-16q0 -106 -56 -146q25 -23 40.5 -51.5t15.5 -75.5v-14q0 -49 -16.5 -83t-46.5 -53.5t-70 -27.5t-87 -8q-90 0 -151.5 36t-61.5 136zM420 0l485 1024h174l-485 -1024h-174zM825 158v129l250 372h160v-372h86v-129h-86v-158h-145v158h-265zM969 287h121 v190z" />
<glyph unicode="&#xbf;" horiz-adv-x="815" d="M123 33q0 68 35 119t76.5 98t76.5 94t35 109v98h184v-98q0 -74 -34.5 -128.5t-76.5 -100.5t-77 -91t-35 -100q0 -31 26.5 -52.5t80.5 -21.5q53 0 109.5 23.5t109.5 52.5l59 -148q-14 -12 -38.5 -29.5t-59.5 -34t-80 -27.5t-100 -11q-133 0 -212 61.5t-79 186.5zM330 721 q0 45 31.5 76.5t76.5 31.5t77 -31.5t32 -76.5t-32 -77t-77 -32t-76.5 32t-31.5 77z" />
<glyph unicode="&#xff;" horiz-adv-x="1941" />
<glyph unicode="&#x2000;" horiz-adv-x="682" />
<glyph unicode="&#x2001;" horiz-adv-x="1365" />
<glyph unicode="&#x2002;" horiz-adv-x="682" />
<glyph unicode="&#x2003;" horiz-adv-x="1365" />
<glyph unicode="&#x2004;" horiz-adv-x="455" />
<glyph unicode="&#x2005;" horiz-adv-x="341" />
<glyph unicode="&#x2006;" horiz-adv-x="227" />
<glyph unicode="&#x2007;" horiz-adv-x="227" />
<glyph unicode="&#x2008;" horiz-adv-x="170" />
<glyph unicode="&#x2009;" horiz-adv-x="273" />
<glyph unicode="&#x200a;" horiz-adv-x="75" />
<glyph unicode="&#x2010;" horiz-adv-x="884" d="M123 330v166h639v-166h-639z" />
<glyph unicode="&#x2011;" horiz-adv-x="884" d="M123 330v166h639v-166h-639z" />
<glyph unicode="&#x2012;" horiz-adv-x="884" d="M123 330v166h639v-166h-639z" />
<glyph unicode="&#x2013;" horiz-adv-x="921" d="M123 330v166h676v-166h-676z" />
<glyph unicode="&#x2014;" horiz-adv-x="1126" d="M123 330v166h881v-166h-881z" />
<glyph unicode="&#x2018;" horiz-adv-x="432" d="M123 819v254l186 109v-363h-186z" />
<glyph unicode="&#x2019;" horiz-adv-x="432" d="M123 823v359h186v-252z" />
<glyph unicode="&#x2022;" horiz-adv-x="616" d="M143 416q0 70 48.5 118t115.5 48q35 0 64.5 -14.5t52 -39t36 -56.5t13.5 -64q0 -66 -48 -111t-118 -45q-68 0 -116 48t-48 116z" />
<glyph unicode="&#x2026;" horiz-adv-x="1335" d="M123 98q0 45 31.5 77t76.5 32t77 -32t32 -77t-32 -76.5t-77 -31.5t-76.5 31.5t-31.5 76.5zM559 98q0 45 32 77t77 32t76.5 -32t31.5 -77t-31.5 -76.5t-76.5 -31.5t-77 31.5t-32 76.5zM995 98q0 45 32 77t77 32t76.5 -32t31.5 -77t-31.5 -76.5t-76.5 -31.5t-77 31.5 t-32 76.5z" />
<glyph unicode="&#x202f;" horiz-adv-x="273" />
<glyph unicode="&#x205f;" horiz-adv-x="341" />
<glyph unicode="&#x25fc;" horiz-adv-x="819" d="M0 0v819h819v-819h-819z" />
</font>
</defs>
</svg>
